<svg width="35" height="35" viewBox="0 0 35 35" fill="none" xmlns="http://www.w3.org/2000/svg">
<g clip-path="url(#clip0)">
<path d="M4.01042 0C1.79521 0 0 1.79521 0 4.01042V16.7708H16.7708V0H4.01042ZM10.5729 9.84375H9.11458V11.3021C9.11458 11.9058 8.62458 12.3958 8.02083 12.3958C7.41708 12.3958 6.92708 11.9058 6.92708 11.3021V9.84375H5.46875C4.865 9.84375 4.375 9.35375 4.375 8.75C4.375 8.14625 4.865 7.65625 5.46875 7.65625H6.92708V6.19792C6.92708 5.59417 7.41708 5.10417 8.02083 5.10417C8.62458 5.10417 9.11458 5.59417 9.11458 6.19792V7.65625H10.5729C11.1767 7.65625 11.6667 8.14625 11.6667 8.75C11.6667 9.35375 11.1767 9.84375 10.5729 9.84375Z" fill="#34BFFB" fill-opacity="0.4"/>
<path d="M0 18.2285V30.9889C0 33.2041 1.79521 34.9993 4.01042 34.9993H16.7708V18.2285H0ZM10.9812 27.6639C11.4085 28.0912 11.4085 28.7839 10.9812 29.2112C10.7683 29.4241 10.4883 29.5306 10.2083 29.5306C9.92833 29.5306 9.64833 29.4241 9.43542 29.2098L8.38542 28.1598L7.33542 29.2098C7.1225 29.4227 6.8425 29.5306 6.5625 29.5306C6.2825 29.5306 6.0025 29.4241 5.78958 29.2098C5.36229 28.7825 5.36229 28.0898 5.78958 27.6625L6.83958 26.6125L5.78958 25.5625C5.36229 25.1352 5.36229 24.4425 5.78958 24.0152C6.21687 23.5879 6.90958 23.5879 7.33687 24.0152L8.38687 25.0652L9.43687 24.0152C9.86417 23.5879 10.5569 23.5879 10.9842 24.0152C11.4115 24.4425 11.4115 25.1352 10.9842 25.5625L9.93417 26.6125L10.9812 27.6639Z" fill="#34BFFB" fill-opacity="0.4"/>
<path d="M30.9895 0H18.2291V16.7708H35V4.01042C35 1.79521 33.2048 0 30.9895 0ZM30.2604 9.47917H23.6979C23.0941 9.47917 22.6041 8.98917 22.6041 8.38542C22.6041 7.78167 23.0941 7.29167 23.6979 7.29167H30.2604C30.8641 7.29167 31.3541 7.78167 31.3541 8.38542C31.3541 8.98917 30.8641 9.47917 30.2604 9.47917Z" fill="#34BFFB" fill-opacity="0.4"/>
<path d="M18.2291 18.2285V34.9993H30.9895C33.2048 34.9993 35 33.2041 35 30.9889V18.2285H18.2291ZM29.8958 29.8952H23.3333C22.7295 29.8952 22.2395 29.4052 22.2395 28.8014C22.2395 28.1977 22.7295 27.7077 23.3333 27.7077H29.8958C30.4995 27.7077 30.9895 28.1977 30.9895 28.8014C30.9895 29.4052 30.4995 29.8952 29.8958 29.8952ZM29.8958 25.5202H23.3333C22.7295 25.5202 22.2395 25.0302 22.2395 24.4264C22.2395 23.8227 22.7295 23.3327 23.3333 23.3327H29.8958C30.4995 23.3327 30.9895 23.8227 30.9895 24.4264C30.9895 25.0302 30.4995 25.5202 29.8958 25.5202Z" fill="#34BFFB" fill-opacity="0.4"/>
</g>
<defs>
<clipPath id="clip0">
<rect width="35" height="35" fill="white"/>
</clipPath>
</defs>
</svg>
