<svg width="35" height="35" viewBox="0 0 35 35" fill="none" xmlns="http://www.w3.org/2000/svg">
<path d="M17.5684 0C7.95635 0 0 7.81963 0 17.4316C0 27.0437 7.95635 35 17.5684 35C27.1804 35 35 27.0437 35 17.4316C35 7.81963 27.1804 0 17.5684 0ZM19.6191 26.7969C19.6191 27.9275 18.6983 28.8477 17.5684 28.8477C16.4377 28.8477 15.5176 27.9275 15.5176 26.7969V16.4062C15.5176 15.2756 16.4377 14.3555 17.5684 14.3555C18.6983 14.3555 19.6191 15.2756 19.6191 16.4062V26.7969ZM17.5684 10.2539C16.4377 10.2539 15.5176 9.33379 15.5176 8.20312C15.5176 7.07246 16.4377 6.15234 17.5684 6.15234C18.6983 6.15234 19.6191 7.07246 19.6191 8.20312C19.6191 9.33379 18.6983 10.2539 17.5684 10.2539Z" fill="#34BFFB" fill-opacity="0.4"/>
</svg>
