<svg width="35" height="31" viewBox="0 0 35 31" fill="none" xmlns="http://www.w3.org/2000/svg">
<path fill-rule="evenodd" clip-rule="evenodd" d="M27.9074 20.0318C25.7028 23.4254 22.3865 25.463 18.8281 26.149C21.2139 26.3777 23.6024 25.9553 25.9584 24.8746C26.7951 24.4962 27.602 24.0457 28.3713 23.5274C30.3389 22.0344 31.9342 20.0418 33.0158 17.7261C34.9187 12.962 34.3236 6.97432 34.275 1.09446C34.275 0.940068 34.3412 0.055977 33.4837 0.0253906H30.6043C29.928 0.0253906 29.594 0.36621 29.594 1.09446V11.555C29.594 14.1009 29.6927 17.2848 27.9074 20.0332V20.0318ZM16.2164 26.4185C19.5506 27.3514 23.0789 27.0551 26.2384 25.5766C32.6912 22.6156 34.5116 17.5659 34.9796 11.7735V12.0648C34.9796 17.0865 33.1272 21.9025 29.8298 25.4534C26.5325 29.0043 22.0603 30.9992 17.3971 30.9992C5.56814 30.986 -2.15193 18.6874 1.1901 6.63204C-0.112361 19.8992 8.12842 26.5073 16.2164 26.4185Z" fill="#33C2FF"/>
<path fill-rule="evenodd" clip-rule="evenodd" d="M21.2194 23.0697C14.2702 25.5457 6.97753 20.563 6.75978 12.5829C6.71204 10.7402 7.06335 8.9108 7.78587 7.23961C8.5084 5.56843 9.58231 4.10135 10.9225 2.95454C12.2628 1.80773 13.8326 1.0127 15.5076 0.632397C17.1826 0.252094 18.9168 0.296966 20.5729 0.76346C19.8263 0.558095 18.0775 0.639658 17.3269 0.7387C16.1559 0.885868 15.0182 1.25417 13.9659 1.8267C12.5053 2.62066 11.3072 3.87984 10.5346 5.43298C9.54443 7.44644 9.17809 9.74813 9.48913 12.0018C8.92243 17.851 12.9191 24.28 21.2194 23.0711V23.0697ZM20.5891 0.76783C19.5127 0.640198 18.4253 0.666645 17.3553 0.84648C14.7463 1.28343 12.6472 2.6671 11.3191 4.79066C10.3227 6.41799 9.79301 8.32512 9.79614 10.2744C10.1218 9.01342 10.6853 7.83832 11.4516 6.82247C14.0214 3.44632 18.6929 2.37434 22.1039 4.88679C22.8245 5.4227 23.4606 6.07968 23.9879 6.83267H27.6938C27.6437 6.72343 27.5802 6.604 27.5044 6.47146C27.3475 6.19618 26.9634 5.49998 26.6713 5.25383C25.1809 3.05239 23.0338 1.46877 20.5891 0.76783Z" fill="#33C2FF"/>
<path fill-rule="evenodd" clip-rule="evenodd" d="M27.7925 17.0787C27.8196 17.0234 27.8439 16.9724 27.8642 16.9258C27.4337 17.5723 26.9344 18.1623 26.3765 18.6838C26.546 18.5858 26.7224 18.502 26.9039 18.4333C27.2001 18.3211 27.6329 17.4137 27.7979 17.0787H27.7925ZM27.898 16.8428C26.0401 18.9703 23.5429 20.3211 20.8488 20.6559C22.7261 19.6902 23.754 18.206 24.437 16.8428H27.898ZM19.357 21.2487C18.3745 21.5294 17.3641 21.6815 16.3477 21.7016C14.7869 21.7511 17.6353 22.4604 19.334 22.4066C22.2189 22.3163 23.662 20.9209 24.9577 19.7674C23.2565 20.8164 21.3159 21.3297 19.357 21.2487Z" fill="#33C2FF"/>
<path fill-rule="evenodd" clip-rule="evenodd" d="M20.5093 0.747254C19.7302 0.56228 18.0572 0.64093 17.3228 0.738515C16.1531 0.885678 15.0167 1.25399 13.9659 1.82652C12.5052 2.62047 11.3072 3.87965 10.5346 5.43279C9.09146 8.29335 9.03601 11.8414 10.214 14.817C13.2125 22.382 23.4482 23.5341 27.8682 16.9202C26.8677 19.39 25.1161 21.4195 22.9018 22.6744C20.6875 23.9293 18.1423 24.3348 15.6854 23.8243C13.2285 23.3138 11.0062 21.9176 9.38434 19.8656C7.76251 17.8136 6.8378 15.2281 6.76245 12.5347C6.54741 4.58366 13.4681 -1.22047 20.5133 0.747254H20.5093ZM27.8993 16.84L27.9237 16.7818L27.8398 16.9085L27.8993 16.84Z" fill="#33C2FF"/>
<path fill-rule="evenodd" clip-rule="evenodd" d="M18.1627 6.66113C19.149 6.66113 20.1131 6.97608 20.9331 7.56616C21.7532 8.15623 22.3923 8.99492 22.7698 9.97618C23.1472 10.9574 23.246 12.0372 23.0535 13.0789C22.8611 14.1206 22.3862 15.0774 21.6888 15.8284C20.9914 16.5795 20.1029 17.0909 19.1355 17.2981C18.1682 17.5053 17.1656 17.399 16.2544 16.9925C15.3432 16.5861 14.5644 15.8978 14.0164 15.0147C13.4685 14.1316 13.176 13.0933 13.176 12.0312C13.176 10.607 13.7014 9.24108 14.6366 8.234C15.5718 7.22691 16.8401 6.66113 18.1627 6.66113Z" fill="#33C2FF"/>
<path fill-rule="evenodd" clip-rule="evenodd" d="M35 11.4728C34.9675 13.9765 34.7579 16.2996 33.9667 18.598C31.5322 25.6692 25.2552 30.9869 17.4729 30.9869C7.7647 30.9869 0 22.5188 0 12.0641V1.0982C0 0.396166 0.34083 0 0.991383 0H4.20222C4.76621 0.0262169 5.06647 0.387427 5.06647 1.08217C5.12192 11.0009 3.54761 20.7448 13.7076 25.4872C17.7746 27.3806 22.1296 27.452 26.225 25.5717C32.8008 22.5655 34.5726 17.3876 35 11.4728Z" fill="#33C2FF"/>
</svg>
