<svg width="85" height="15" viewBox="0 0 85 15" fill="none" xmlns="http://www.w3.org/2000/svg">
<g clip-path="url(#clip0)">
<path fill-rule="evenodd" clip-rule="evenodd" d="M14.6964 9.09758C13.5355 10.6388 11.789 11.5642 9.91513 11.8757C11.1715 11.9796 12.4294 11.7877 13.6701 11.2969C14.1107 11.1251 14.5356 10.9205 14.9407 10.6851C15.9769 10.0071 16.817 9.10212 17.3866 8.05048C18.3887 5.88683 18.0753 3.16756 18.0497 0.497233C18.0497 0.427118 18.0846 0.0256095 17.633 0.0117188H16.1166C15.7605 0.0117188 15.5846 0.166501 15.5846 0.497233V5.24786C15.5846 6.4041 15.6366 7.85006 14.6964 9.09824V9.09758ZM8.53979 11.9981C10.2956 12.4218 12.1537 12.2872 13.8175 11.6158C17.2156 10.271 18.1743 7.97772 18.4207 5.34708V5.47937C18.4207 7.75997 17.4452 9.94717 15.7088 11.5598C13.9724 13.1724 11.6173 14.0784 9.16158 14.0784C2.93229 14.0724 -1.1332 8.48705 0.626754 3.01212C-0.0591376 9.03738 4.28057 12.0384 8.53979 11.9981Z" fill="#33C2FF"/>
<path fill-rule="evenodd" clip-rule="evenodd" d="M11.1744 10.4767C7.51488 11.6012 3.67446 9.33836 3.55978 5.7142C3.53464 4.87733 3.71965 4.04652 4.10014 3.28756C4.48063 2.5286 5.04616 1.86232 5.75195 1.3415C6.45774 0.820684 7.28441 0.459621 8.16648 0.286908C9.04856 0.114194 9.96182 0.134572 10.8339 0.34643C10.4408 0.253164 9.51985 0.290205 9.12455 0.335185C8.5079 0.402021 7.90875 0.569285 7.35462 0.829298C6.58544 1.18987 5.95452 1.76173 5.54766 2.46708C5.02621 3.38149 4.8333 4.4268 4.99709 5.45028C4.69866 8.10671 6.80335 11.0264 11.1744 10.4774V10.4767ZM10.8425 0.348414C10.2756 0.290451 9.70298 0.302461 9.13951 0.384133C7.76559 0.582572 6.66019 1.21096 5.96076 2.17537C5.43604 2.91442 5.15712 3.78054 5.15877 4.66578C5.33024 4.09313 5.62702 3.55946 6.03056 3.09812C7.38383 1.56484 9.84392 1.07801 11.6402 2.21903C12.0197 2.46241 12.3547 2.76078 12.6324 3.10275H14.5839C14.5576 3.05314 14.5241 2.9989 14.4842 2.9387C14.4016 2.81369 14.1993 2.49751 14.0455 2.38572C13.2606 1.38594 12.1299 0.666744 10.8425 0.348414Z" fill="#33C2FF"/>
<path fill-rule="evenodd" clip-rule="evenodd" d="M14.6359 7.75608C14.6502 7.73095 14.663 7.7078 14.6737 7.68663C14.4469 7.98023 14.184 8.24819 13.8902 8.48502C13.9795 8.44051 14.0724 8.40248 14.168 8.37124C14.324 8.32031 14.5519 7.90822 14.6388 7.75608H14.6359ZM14.6915 7.64893C13.7131 8.61513 12.398 9.22858 10.9793 9.38064C11.9678 8.94209 12.5092 8.26806 12.8688 7.64893H14.6915ZM10.1936 9.64985C9.67623 9.77737 9.14414 9.84644 8.6089 9.85557C7.78697 9.87806 9.28696 10.2002 10.1815 10.1757C11.7008 10.1347 12.4607 9.50102 13.1431 8.97715C12.2472 9.45355 11.2252 9.68665 10.1936 9.64985Z" fill="#33C2FF"/>
<path fill-rule="evenodd" clip-rule="evenodd" d="M10.8005 0.33933C10.3902 0.255324 9.50918 0.291043 9.12243 0.335361C8.50646 0.402195 7.90802 0.569464 7.35464 0.829474C6.58546 1.19005 5.95454 1.7619 5.54768 2.46726C4.78771 3.76637 4.75851 5.3777 5.37888 6.72906C6.95792 10.1647 12.3482 10.6879 14.6758 7.68422C14.1489 8.80591 13.2265 9.72757 12.0604 10.2975C10.8943 10.8674 9.55402 11.0516 8.26017 10.8197C6.96632 10.5879 5.79603 9.95381 4.94195 9.02189C4.08787 8.08998 3.60091 6.91576 3.56123 5.69255C3.44798 2.08162 7.09254 -0.554307 10.8026 0.33933H10.8005ZM14.6922 7.64784L14.705 7.62138L14.6608 7.67893L14.6922 7.64784Z" fill="#33C2FF"/>
<path fill-rule="evenodd" clip-rule="evenodd" d="M9.56474 3.02539C10.0841 3.02539 10.5918 3.16842 11.0237 3.43641C11.4555 3.70439 11.7921 4.08528 11.9909 4.53091C12.1896 4.97655 12.2417 5.46691 12.1403 5.93999C12.039 6.41308 11.7889 6.84763 11.4216 7.18871C11.0544 7.52978 10.5865 7.76206 10.0771 7.85616C9.56765 7.95026 9.03964 7.90197 8.55979 7.71738C8.07994 7.53279 7.66981 7.2202 7.38126 6.81914C7.09271 6.41808 6.93869 5.94656 6.93869 5.46421C6.93869 4.81739 7.21536 4.19707 7.70784 3.7397C8.20032 3.28234 8.86827 3.02539 9.56474 3.02539Z" fill="#33C2FF"/>
<path fill-rule="evenodd" clip-rule="evenodd" d="M18.4315 5.21034C18.4144 6.3474 18.304 7.40243 17.8873 8.44622C16.6053 11.6576 13.2997 14.0726 9.20149 14.0726C4.089 14.0726 0 10.2269 0 5.4789V0.498743C0 0.179918 0.179486 0 0.522075 0H2.21294C2.50995 0.0119063 2.66807 0.175949 2.66807 0.491467C2.69727 4.99603 1.86822 9.42122 7.2186 11.5749C9.36032 12.4348 11.6537 12.4673 13.8104 11.6133C17.2734 10.248 18.2064 7.89655 18.4315 5.21034Z" fill="#33C2FF"/>
<path fill-rule="evenodd" clip-rule="evenodd" d="M27.1451 11.1127C25.6451 11.4805 22.0475 11.7854 20.9321 10.6054C20.4129 10.0557 20.2755 9.29105 20.2755 8.5608V2.89404H22.3139V8.35178C22.3139 9.88306 23.539 10.1205 25.1066 9.93135V2.95556H27.1451V11.1127Z" fill="#33C2FF"/>
<path fill-rule="evenodd" clip-rule="evenodd" d="M28.1401 5.43739C28.542 5.33545 28.9501 5.25615 29.3623 5.19992C29.8822 5.12612 30.4076 5.09051 30.9335 5.09343C31.4886 5.09343 31.9523 5.15957 32.3245 5.29187C32.6661 5.40892 32.969 5.60656 33.2034 5.86536C33.4252 6.12417 33.5828 6.42523 33.665 6.74709C33.7603 7.11884 33.8062 7.50004 33.8017 7.88216V11.3218H31.9435V8.08986C31.9435 7.53379 31.8646 7.14 31.707 6.90848C31.5494 6.67697 31.2543 6.56122 30.8217 6.56122C30.6885 6.56122 30.5475 6.56717 30.3943 6.57841C30.2412 6.58966 30.1094 6.60355 29.9955 6.61876V11.3211H28.1401V5.43739Z" fill="#33C2FF"/>
<path fill-rule="evenodd" clip-rule="evenodd" d="M36.593 11.3211H34.7347V5.22901H36.593V11.3211ZM36.7675 3.46886C36.7675 3.78592 36.6573 4.03485 36.437 4.21565C36.2216 4.3915 35.9446 4.48849 35.6578 4.48849C35.371 4.48849 35.094 4.3915 34.8786 4.21565C34.6578 4.03441 34.5474 3.78548 34.5474 3.46886C34.5474 3.15224 34.6578 2.9033 34.8786 2.72206C35.094 2.54621 35.371 2.44922 35.6578 2.44922C35.9446 2.44922 36.2216 2.54621 36.437 2.72206C36.6569 2.9033 36.767 3.15224 36.7675 3.46886Z" fill="#33C2FF"/>
<path fill-rule="evenodd" clip-rule="evenodd" d="M41.8216 11.4832C40.4166 11.4832 39.3463 11.1203 38.6108 10.3944C37.8753 9.66859 37.5073 8.63781 37.5068 7.3021C37.4963 6.69557 37.6106 6.09275 37.8437 5.52607C38.0495 5.03069 38.3636 4.58026 38.7661 4.20315C39.1634 3.8412 39.64 3.56303 40.1635 3.38756C40.7269 3.19824 41.3222 3.10393 41.9213 3.10909C42.2554 3.10672 42.5891 3.13195 42.9184 3.18449C43.1832 3.2273 43.4448 3.28518 43.7019 3.3578C43.8943 3.41211 44.0819 3.48 44.2632 3.56087C44.4127 3.6301 44.5208 3.68412 44.5872 3.72292L44.026 5.18211C43.731 5.03998 43.4206 4.92735 43.1001 4.84609C42.7076 4.74875 42.3026 4.70201 41.8964 4.70718C41.5971 4.70721 41.2999 4.75417 41.0175 4.84609C40.7306 4.93881 40.4704 5.09132 40.2568 5.29191C40.0217 5.51869 39.841 5.78924 39.7269 6.08567C39.5844 6.46487 39.5168 6.86487 39.5274 7.26638C39.5248 7.61577 39.5686 7.96412 39.6578 8.30355C39.736 8.60442 39.8816 8.88659 40.0851 9.1317C40.2892 9.36959 40.5521 9.55816 40.8515 9.68138C41.2137 9.82538 41.6051 9.89466 41.9989 9.88445C42.2534 9.88634 42.5077 9.87065 42.7596 9.83749C42.9613 9.81116 43.1613 9.7745 43.3586 9.72768C43.5161 9.69066 43.6701 9.64223 43.8194 9.58282C43.9526 9.52924 44.0737 9.47897 44.1812 9.43267L44.7147 10.8833C44.4407 11.038 44.0542 11.1772 43.5552 11.3006C42.9883 11.431 42.4055 11.4924 41.8216 11.4832Z" fill="#33C2FF"/>
<path fill-rule="evenodd" clip-rule="evenodd" d="M44.5744 8.32131C44.5635 7.83669 44.6544 7.35474 44.8422 6.90247C45.0015 6.52352 45.2413 6.17822 45.5473 5.88712C45.8322 5.61993 46.174 5.41087 46.5509 5.27329C46.9229 5.13573 47.3199 5.06568 47.7204 5.06691C48.6515 5.06691 49.3875 5.3315 49.9283 5.86067C50.4692 6.38984 50.7393 7.16794 50.7389 8.19497C50.7389 8.29485 50.7346 8.40531 50.7268 8.5257C50.7189 8.64608 50.7097 8.75192 50.7018 8.84452H46.4825C46.499 9.01351 46.5556 9.17699 46.6483 9.32318C46.7411 9.46937 46.8676 9.59461 47.0188 9.68987C47.3346 9.89801 47.7586 10.0023 48.2909 10.0027C48.6276 10.0027 48.9635 9.97369 49.2944 9.91609C49.5702 9.87234 49.8398 9.80046 50.0986 9.70178L50.3479 11.1028C50.2194 11.1595 50.086 11.206 49.949 11.2417C49.7666 11.2918 49.5814 11.3324 49.3942 11.3634C49.1905 11.3984 48.9725 11.4295 48.7396 11.45C48.5075 11.4733 48.2743 11.485 48.0409 11.4851C47.5158 11.4967 46.9932 11.4152 46.501 11.245C46.0913 11.0993 45.721 10.8719 45.4163 10.5789C45.1265 10.2933 44.9092 9.95112 44.7802 9.57742C44.6398 9.17344 44.5703 8.7511 44.5744 8.3266V8.32131ZM48.939 7.65984C48.9313 7.51497 48.9047 7.3715 48.86 7.23254C48.8169 7.09583 48.7442 6.96877 48.6461 6.85921C48.5481 6.74965 48.427 6.65991 48.2902 6.59555C48.1208 6.52119 47.9347 6.48537 47.7474 6.49104C47.5629 6.48636 47.3796 6.52027 47.2111 6.59026C47.0679 6.65113 46.9404 6.73977 46.8372 6.85021C46.736 6.96141 46.6577 7.08901 46.6064 7.22659C46.5524 7.36769 46.5129 7.51319 46.4882 7.66117L48.939 7.65984Z" fill="#33C2FF"/>
<path fill-rule="evenodd" clip-rule="evenodd" d="M53.5537 10.0815C53.8941 10.0815 54.1356 10.0511 54.2766 9.98888C54.4176 9.9267 54.4903 9.80764 54.4903 9.6297C54.4903 9.4908 54.3989 9.36931 54.2161 9.26524C53.9493 9.12483 53.6698 9.00663 53.3806 8.91202C53.1108 8.82075 52.8465 8.71631 52.5886 8.59914C52.3662 8.50051 52.1621 8.36967 51.9839 8.21153C51.8158 8.05893 51.684 7.87528 51.5971 7.67243C51.4994 7.43236 51.4527 7.17694 51.4597 6.92035C51.4597 6.34708 51.6883 5.8953 52.1456 5.56501C52.6028 5.23472 53.2306 5.0687 54.0287 5.06693C54.4137 5.06563 54.798 5.09863 55.1762 5.16549C55.4733 5.21369 55.7654 5.28539 56.0494 5.3798L55.7246 6.72324C55.4935 6.64996 55.2584 6.58814 55.0202 6.53803C54.7395 6.48124 54.4528 6.45394 54.1655 6.45667C53.5838 6.45667 53.2928 6.60726 53.2923 6.90845C53.2909 6.97195 53.3037 7.03502 53.33 7.09365C53.3641 7.15726 53.4157 7.21135 53.4796 7.25042C53.5766 7.31194 53.6788 7.36614 53.7852 7.41248C53.9141 7.47201 54.0779 7.53551 54.2773 7.60497C54.6245 7.72009 54.9621 7.85894 55.2873 8.02036C55.5218 8.13402 55.7348 8.28262 55.9176 8.46024C56.067 8.61185 56.1777 8.79269 56.2417 8.98941C56.3089 9.20652 56.3415 9.4316 56.3385 9.65749C56.3385 10.2581 56.0954 10.7132 55.6092 11.0227C55.123 11.3323 54.4345 11.4867 53.5437 11.4858C53.0551 11.4952 52.567 11.4485 52.0907 11.3469C51.8152 11.2872 51.5448 11.2089 51.2816 11.1127L51.5936 9.71173C51.9083 9.82719 52.2327 9.91812 52.5637 9.98359C52.889 10.0484 53.2209 10.0812 53.5537 10.0815Z" fill="#33C2FF"/>
<path fill-rule="evenodd" clip-rule="evenodd" d="M62.6512 11.1127C62.2495 11.2145 61.8416 11.294 61.4297 11.3508C60.9096 11.4258 60.384 11.4625 59.8578 11.4606C59.3008 11.4606 58.8374 11.3912 58.4675 11.2523C58.125 11.1311 57.8222 10.9297 57.5886 10.6675C57.3653 10.4034 57.2077 10.0966 57.127 9.76928C57.0322 9.39362 56.9861 9.00879 56.9896 8.62297V5.229H58.8478V8.41395C58.8478 8.96957 58.9269 9.37108 59.085 9.61847C59.2431 9.86586 59.5384 9.98911 59.971 9.98823C60.1042 9.98823 60.2452 9.98293 60.3984 9.97103C60.5515 9.95912 60.6833 9.94589 60.7972 9.93068V5.229H62.6555L62.6512 11.1127Z" fill="#33C2FF"/>
<path fill-rule="evenodd" clip-rule="evenodd" d="M67.2508 8.08967C67.2508 7.5336 67.1739 7.13981 67.0201 6.9083C66.8662 6.67679 66.6022 6.56103 66.2281 6.56103C66.1112 6.56103 65.9909 6.56698 65.8662 6.57823C65.7416 6.58947 65.6212 6.60336 65.5044 6.61858V11.3209H63.6469V5.4339C63.805 5.39553 63.9895 5.35452 64.2017 5.31219C64.414 5.26986 64.6383 5.23083 64.8748 5.19643C65.1113 5.16204 65.3556 5.13492 65.6048 5.11573C65.8541 5.09655 66.0991 5.08663 66.3406 5.08663C66.8154 5.08663 67.1998 5.14263 67.4937 5.25464C67.7589 5.34868 68.0056 5.48278 68.2238 5.65152C68.7753 5.29888 69.4248 5.10179 70.0941 5.08398C70.6164 5.08398 71.0466 5.15145 71.3847 5.28639C71.7026 5.40815 71.9801 5.60604 72.1888 5.85988C72.3951 6.1211 72.5358 6.42194 72.6005 6.74029C72.6789 7.11419 72.7166 7.49445 72.713 7.87536V11.315H70.8548V8.08967C70.8548 7.5336 70.7779 7.13981 70.624 6.9083C70.4702 6.67679 70.2062 6.56103 69.832 6.56103C69.6904 6.56643 69.5501 6.58866 69.4146 6.62718C69.2585 6.66413 69.1092 6.72254 68.9716 6.80048C69.0307 6.98361 69.0685 7.17211 69.0841 7.36272C69.1003 7.55896 69.1084 7.7693 69.1084 7.99376V11.3176H67.2508V8.08967Z" fill="#33C2FF"/>
<path fill-rule="evenodd" clip-rule="evenodd" d="M76.2365 10.1165C76.4198 10.1165 76.5943 10.1125 76.76 10.1046C76.8938 10.0998 77.0271 10.0883 77.1596 10.0702V8.76117C77.0883 8.74595 76.9723 8.73074 76.8227 8.71486C76.686 8.70021 76.5486 8.69248 76.411 8.69171C76.2464 8.69115 76.082 8.70087 75.9189 8.72082C75.7781 8.73597 75.6411 8.77309 75.5136 8.83062C75.4026 8.88021 75.3078 8.95621 75.2387 9.05089C75.1688 9.15502 75.134 9.2762 75.139 9.39882C75.139 9.66869 75.2368 9.85589 75.4324 9.9604C75.628 10.0649 75.8961 10.1169 76.2365 10.1165ZM76.0869 5.06689C76.6354 5.06689 77.0926 5.12488 77.4587 5.24086C77.7911 5.33762 78.0929 5.50865 78.3376 5.73894C78.5619 5.96094 78.7228 6.23154 78.8056 6.52608C78.901 6.8623 78.9473 7.20895 78.943 7.55664V11.1484C78.6766 11.2026 78.3065 11.2663 77.8326 11.3396C77.2632 11.4194 76.6877 11.4561 76.1119 11.4494C75.7244 11.4529 75.3376 11.4181 74.958 11.3455C74.6401 11.2858 74.3376 11.1696 74.067 11.0035C73.8199 10.8481 73.6218 10.6344 73.493 10.3844C73.3511 10.0897 73.283 9.76906 73.2935 9.44644C73.283 9.13138 73.3626 8.81936 73.5243 8.54222C73.673 8.30014 73.8855 8.09712 74.1418 7.9522C74.415 7.79952 74.7145 7.69167 75.0271 7.63337C75.3675 7.56722 75.7143 7.53419 76.062 7.53481C76.2761 7.53359 76.4901 7.5433 76.703 7.56392C76.8567 7.57777 77.0088 7.60299 77.1582 7.63932V7.47462C77.1582 7.18093 77.0632 6.94545 76.8733 6.76818C76.6833 6.59091 76.351 6.50271 75.8761 6.50359C75.5631 6.50411 75.2505 6.52622 74.941 6.56974C74.6691 6.60352 74.4017 6.6636 74.1432 6.749L73.9061 5.35992C74.0136 5.32883 74.1482 5.29378 74.3113 5.26136C74.4744 5.22895 74.6496 5.19522 74.8412 5.16876C75.0328 5.1423 75.2344 5.11849 75.4459 5.10261C75.6575 5.08674 75.8711 5.06689 76.0869 5.06689Z" fill="#33C2FF"/>
<path fill-rule="evenodd" clip-rule="evenodd" d="M83.9131 6.75779C83.7464 6.71942 83.5511 6.67885 83.3269 6.63608C83.0887 6.59161 82.8463 6.56945 82.6033 6.56993C82.4637 6.57168 82.3243 6.5814 82.1859 6.59903C82.0616 6.61246 81.9385 6.63458 81.8177 6.66518V11.3212H79.9594V5.55657C80.346 5.43439 80.7395 5.33215 81.1382 5.25031C81.6357 5.14901 82.1439 5.10019 82.6531 5.10479C82.7529 5.10479 82.8739 5.11074 83.015 5.12265C83.156 5.13456 83.2999 5.14977 83.4423 5.16895C83.5848 5.18813 83.7272 5.21128 83.8697 5.2351C83.9931 5.25756 84.114 5.29078 84.2308 5.33432L83.9131 6.75779Z" fill="#33C2FF"/>
<path d="M28.1401 14.6397V13.5093H28.962V13.7229H28.4143V13.9445H28.9008V14.1555H28.4143V14.4281H29.0026V14.6417L28.1401 14.6397Z" fill="#33C2FF"/>
<path d="M30.8943 14.0731C30.8964 14.1606 30.8797 14.2476 30.8452 14.3291C30.8141 14.3992 30.7652 14.4614 30.7028 14.5103C30.6387 14.5599 30.5642 14.5966 30.4841 14.6182C30.3894 14.6432 30.2913 14.6552 30.1928 14.6539C30.1353 14.6546 30.0777 14.6526 30.0204 14.6479C29.9556 14.6445 29.8911 14.6368 29.8274 14.6248V13.5234C29.8927 13.5129 29.9586 13.5056 30.0247 13.5016C30.0959 13.4976 30.1522 13.4956 30.2013 13.4956C30.2974 13.4948 30.3932 13.5057 30.4862 13.5281C30.5661 13.5478 30.6406 13.583 30.7049 13.6312C30.7676 13.6791 30.8166 13.7407 30.8473 13.8105C30.8814 13.8943 30.8973 13.9836 30.8943 14.0731ZM30.1023 14.4323H30.2078C30.263 14.4365 30.3186 14.4302 30.371 14.4136C30.4235 14.3969 30.4717 14.3704 30.5126 14.3357C30.5817 14.263 30.6172 14.168 30.6116 14.0711C30.6192 14.0216 30.6142 13.971 30.5969 13.9236C30.5796 13.8762 30.5505 13.8332 30.5121 13.7981C30.4736 13.763 30.4268 13.7368 30.3754 13.7216C30.324 13.7064 30.2695 13.7027 30.2163 13.7106H30.1586C30.1398 13.7112 30.121 13.7127 30.1023 13.7153V14.4323Z" fill="#33C2FF"/>
<path d="M32.2219 14.6622C32.1468 14.6636 32.072 14.6524 32.0011 14.6291C31.9431 14.609 31.8905 14.5772 31.8473 14.5359C31.8061 14.4957 31.7754 14.4473 31.7576 14.3943C31.7376 14.3355 31.7277 14.2741 31.7284 14.2124V13.5093H32.0026V14.1912C32.0018 14.2306 32.0076 14.2699 32.0197 14.3077C32.0283 14.3365 32.0439 14.3632 32.0652 14.3857C32.0843 14.406 32.1089 14.4211 32.1365 14.4294C32.1657 14.4382 32.1962 14.4424 32.2269 14.4419C32.2567 14.4433 32.2865 14.4389 32.3145 14.4292C32.3424 14.4194 32.3679 14.4044 32.3893 14.3851C32.437 14.3307 32.4596 14.261 32.452 14.1912V13.5093H32.7262V14.2124C32.727 14.2744 32.7169 14.336 32.6963 14.395C32.6779 14.4485 32.6464 14.4974 32.6044 14.5379C32.5609 14.5794 32.5074 14.6109 32.4484 14.6298C32.3756 14.6532 32.2989 14.6641 32.2219 14.6622Z" fill="#33C2FF"/>
<path d="M34.1664 14.6618C34.0837 14.6671 34.0007 14.6561 33.9228 14.6298C33.845 14.6035 33.7739 14.5624 33.7141 14.509C33.6036 14.3878 33.548 14.2316 33.5588 14.0731C33.5572 13.9877 33.5734 13.9028 33.6065 13.8231C33.6355 13.7533 33.6796 13.6898 33.7362 13.6366C33.792 13.5857 33.8591 13.5466 33.9328 13.5221C34.0121 13.4951 34.0961 13.4816 34.1806 13.4825C34.2283 13.4823 34.276 13.4859 34.3231 13.493C34.3606 13.4992 34.3977 13.5073 34.4342 13.5175C34.4612 13.5256 34.4876 13.5353 34.5132 13.5466C34.5339 13.5559 34.5496 13.5638 34.5588 13.5691L34.4798 13.7748C34.4379 13.755 34.394 13.739 34.3487 13.7272C34.2934 13.7139 34.2364 13.7075 34.1792 13.708C34.137 13.7081 34.0952 13.7146 34.0553 13.7272C34.015 13.7404 33.9785 13.7619 33.9484 13.79C33.915 13.8218 33.8894 13.8599 33.8736 13.9018C33.8537 13.9554 33.8443 14.0119 33.8459 14.0685C33.8454 14.1175 33.8513 14.1664 33.8637 14.214C33.8749 14.2564 33.8953 14.2962 33.9235 14.3311C33.9528 14.3642 33.9898 14.3907 34.0318 14.4085C34.0828 14.4288 34.138 14.4385 34.1934 14.4369C34.2292 14.4374 34.2649 14.4352 34.3003 14.4303C34.3288 14.4269 34.3572 14.4218 34.385 14.4151C34.4071 14.4096 34.4287 14.4027 34.4498 14.3946L34.5004 14.3734L34.5759 14.5772C34.5247 14.6036 34.4698 14.6234 34.4128 14.6361C34.3322 14.6546 34.2494 14.6632 34.1664 14.6618Z" fill="#33C2FF"/>
<path d="M36.239 14.6397C36.2255 14.6 36.2112 14.5603 36.1956 14.5187L36.1486 14.395H35.6735C35.6578 14.436 35.6429 14.4777 35.6272 14.5187C35.6115 14.5597 35.5973 14.6007 35.5838 14.6397H35.2989C35.3463 14.518 35.3898 14.4053 35.4292 14.3017C35.4684 14.1979 35.509 14.1033 35.5496 14.01C35.5902 13.9167 35.6279 13.8321 35.6664 13.7501C35.7048 13.668 35.744 13.5873 35.7853 13.5093H36.0446C36.0845 13.5873 36.1243 13.668 36.1628 13.7501C36.2013 13.8321 36.2412 13.9187 36.2803 14.01C36.3195 14.1013 36.3601 14.1985 36.4014 14.3017C36.4427 14.4049 36.4862 14.518 36.5317 14.6397H36.239ZM35.91 13.7653C35.9036 13.7818 35.895 13.8043 35.8829 13.8314L35.843 13.9293C35.8281 13.9663 35.811 14.0074 35.7924 14.0517C35.7739 14.096 35.7547 14.143 35.7355 14.1919H36.0837C36.0652 14.143 36.0474 14.096 36.0296 14.0517C36.0118 14.0074 35.9954 13.9657 35.9798 13.9286L35.9384 13.8307C35.9271 13.8036 35.9171 13.7811 35.91 13.7653Z" fill="#33C2FF"/>
<path d="M37.8871 14.661C37.8821 14.6696 37.8779 14.6775 37.8743 14.6855C37.8708 14.6918 37.868 14.6985 37.8658 14.7053C37.8944 14.7159 37.919 14.7341 37.9365 14.7576C37.954 14.7812 37.9636 14.809 37.964 14.8376C37.9653 14.8612 37.9598 14.8847 37.948 14.9056C37.9363 14.9265 37.9187 14.9442 37.8971 14.9567C37.8442 14.9859 37.7833 15.0002 37.7219 14.9977C37.6959 14.9977 37.6699 14.9957 37.6443 14.9917C37.6183 14.9883 37.5926 14.9832 37.5673 14.9765L37.5987 14.8343L37.6435 14.8449C37.6645 14.8499 37.686 14.8524 37.7076 14.8521C37.7224 14.8526 37.7371 14.8497 37.7504 14.8435C37.7566 14.8405 37.7618 14.836 37.7655 14.8304C37.7691 14.8248 37.771 14.8183 37.771 14.8118C37.7713 14.8049 37.7699 14.7981 37.767 14.7918C37.764 14.7855 37.7596 14.7799 37.7539 14.7754C37.737 14.7628 37.7169 14.7544 37.6955 14.7509H37.6777C37.6827 14.7377 37.6884 14.7232 37.6962 14.706L37.7183 14.6577C37.6466 14.6532 37.5766 14.6353 37.5125 14.6049C37.4485 14.5746 37.3918 14.5324 37.3458 14.4811C37.2552 14.3632 37.2105 14.2202 37.2191 14.0756C37.2178 13.9902 37.2339 13.9053 37.2668 13.8255C37.2957 13.7558 37.3399 13.6923 37.3964 13.639C37.4525 13.5881 37.5198 13.5491 37.5937 13.5246C37.6728 13.4976 37.7565 13.4841 37.8408 13.4849C37.8885 13.4848 37.9362 13.4883 37.9833 13.4955C38.0205 13.5017 38.0574 13.5099 38.0937 13.52C38.1207 13.528 38.1471 13.5377 38.1727 13.5491C38.1884 13.5556 38.2037 13.5631 38.2183 13.5715L38.1393 13.7773C38.0976 13.7574 38.054 13.7415 38.0089 13.7296C37.9533 13.7163 37.8961 13.7099 37.8387 13.7105C37.7968 13.7105 37.7551 13.717 37.7155 13.7296C37.6751 13.743 37.6384 13.7645 37.6079 13.7925C37.5752 13.8247 37.5498 13.8627 37.5331 13.9043C37.5132 13.9578 37.5038 14.0143 37.5054 14.071C37.5051 14.12 37.5113 14.1689 37.5239 14.2165C37.5347 14.259 37.5551 14.2989 37.5837 14.3336C37.6122 14.3672 37.6491 14.3938 37.6913 14.4109C37.7423 14.4312 37.7975 14.4409 37.8529 14.4394C37.9175 14.4394 37.9819 14.4321 38.0445 14.4176C38.0667 14.4123 38.0883 14.4055 38.1093 14.3971L38.1606 14.3759L38.2361 14.5796C38.1915 14.6034 38.1436 14.6212 38.0937 14.6325C38.0261 14.6488 37.9569 14.6583 37.8871 14.661Z" fill="#33C2FF"/>
<path d="M39.8964 14.6395C39.8829 14.5998 39.8679 14.5602 39.8522 14.5185C39.8366 14.4768 39.8209 14.4358 39.8059 14.3948H39.3302C39.3152 14.4358 39.2995 14.4775 39.2839 14.5185C39.2682 14.5595 39.2547 14.6005 39.2411 14.6395H38.9562C39.0037 14.5178 39.0472 14.4052 39.0866 14.3015C39.126 14.1979 39.1663 14.1007 39.2077 14.0098C39.2468 13.9185 39.2853 13.8319 39.3238 13.7499C39.3622 13.6678 39.4014 13.5871 39.4427 13.5091H39.7027C39.7426 13.5871 39.7817 13.6678 39.8209 13.7499C39.8601 13.8319 39.8985 13.9185 39.9384 14.0098C39.9783 14.1011 40.0175 14.1983 40.0588 14.3015C40.1001 14.4047 40.1436 14.5178 40.1898 14.6395H39.8964ZM39.9014 13.2167C39.8934 13.2356 39.8836 13.2537 39.8722 13.271C39.86 13.2907 39.8451 13.3089 39.828 13.3252C39.8106 13.342 39.7904 13.3561 39.7682 13.3669C39.7462 13.3776 39.7218 13.3833 39.697 13.3834C39.6771 13.3834 39.6574 13.3802 39.6386 13.3742L39.5844 13.355C39.5673 13.3477 39.5495 13.3411 39.5317 13.3351C39.5144 13.3293 39.4961 13.3264 39.4776 13.3265C39.4669 13.3261 39.4563 13.3278 39.4463 13.3314C39.4364 13.3351 39.4274 13.3406 39.4199 13.3477C39.4044 13.3617 39.3918 13.3783 39.3829 13.3966L39.2547 13.3179C39.263 13.2996 39.2725 13.2817 39.2832 13.2643C39.2959 13.2445 39.3109 13.2261 39.328 13.2094C39.3457 13.193 39.3659 13.1789 39.3879 13.1678C39.4099 13.1573 39.4343 13.1518 39.4591 13.1519C39.4789 13.1517 39.4987 13.1546 39.5175 13.1605C39.536 13.1665 39.5538 13.1731 39.5716 13.1803L39.6229 13.2002C39.6407 13.206 39.6595 13.2089 39.6785 13.2088C39.6891 13.2091 39.6997 13.2073 39.7096 13.2037C39.7195 13.2 39.7286 13.1946 39.7361 13.1876C39.7517 13.1736 39.7643 13.157 39.7732 13.1387L39.9014 13.2167ZM39.5666 13.7651C39.5609 13.7816 39.5517 13.8041 39.5403 13.8312C39.5289 13.8583 39.5146 13.8921 39.4997 13.9291C39.4847 13.9662 39.4676 14.0072 39.4491 14.0515C39.4306 14.0958 39.4121 14.1428 39.3928 14.1917H39.7433C39.724 14.1428 39.7062 14.0958 39.6891 14.0515C39.672 14.0072 39.6549 13.9655 39.6393 13.9285C39.6236 13.8914 39.6094 13.8623 39.598 13.8306L39.5666 13.7651Z" fill="#33C2FF"/>
<path d="M42.0844 14.0731C42.0866 14.1602 42.0709 14.2468 42.0381 14.3284C42.0104 14.3978 41.9669 14.4607 41.9106 14.513C41.8562 14.563 41.7905 14.6012 41.7183 14.6248C41.6414 14.6499 41.5605 14.6624 41.479 14.6618C41.3987 14.6625 41.3189 14.6499 41.2432 14.6248C41.1711 14.6005 41.1054 14.5625 41.0502 14.513C40.9933 14.4607 40.9489 14.3978 40.9199 14.3284C40.8869 14.2469 40.8709 14.1602 40.8729 14.0731C40.871 13.9858 40.8877 13.8991 40.922 13.8178C40.952 13.7482 40.9971 13.6852 41.0545 13.6326C41.1097 13.5831 41.1755 13.5448 41.2475 13.5201C41.3216 13.4948 41.4 13.482 41.479 13.4824C41.5591 13.482 41.6387 13.4948 41.714 13.5201C41.7862 13.5446 41.8519 13.5829 41.907 13.6326C41.9642 13.685 42.0087 13.7481 42.0374 13.8178C42.0704 13.8993 42.0864 13.986 42.0844 14.0731ZM41.1585 14.0731C41.1576 14.1239 41.1651 14.1745 41.1806 14.2233C41.1935 14.265 41.2147 14.304 41.2432 14.3384C41.2704 14.3699 41.305 14.3952 41.3444 14.4124C41.3876 14.4298 41.4341 14.4387 41.4811 14.4387C41.5282 14.4387 41.5747 14.4298 41.6179 14.4124C41.6576 14.3955 41.6925 14.3701 41.7197 14.3384C41.7482 14.3039 41.7697 14.2649 41.7831 14.2233C41.8116 14.1247 41.8116 14.0209 41.7831 13.9223C41.7697 13.8805 41.7482 13.8413 41.7197 13.8065C41.6927 13.7746 41.6577 13.7492 41.6179 13.7325C41.5748 13.7148 41.5282 13.7057 41.4811 13.7057C41.434 13.7057 41.3875 13.7148 41.3444 13.7325C41.3051 13.7501 41.2705 13.7756 41.2432 13.8072C41.2147 13.8418 41.1935 13.8811 41.1806 13.923C41.1641 13.9716 41.1557 14.0222 41.1556 14.0731H41.1585Z" fill="#33C2FF"/>
<path d="M44.3472 13.4939C44.4929 13.486 44.638 13.517 44.7653 13.5832C44.8143 13.6159 44.8533 13.66 44.8782 13.7111C44.9032 13.7622 44.9134 13.8184 44.9077 13.8742C44.9124 13.931 44.9012 13.9879 44.8753 14.0395C44.8493 14.091 44.8095 14.1355 44.7596 14.1686C44.6314 14.2358 44.485 14.2673 44.338 14.2592H44.2525V14.6376H43.9783V13.525C44.0409 13.5142 44.1042 13.5067 44.1677 13.5025C44.2382 13.4979 44.2966 13.4939 44.3472 13.4939ZM44.3643 13.7108H44.256V14.0369H44.3415C44.4148 14.0409 44.4881 14.0284 44.5552 14.0006C44.5795 13.9872 44.5992 13.9676 44.6118 13.9442C44.6244 13.9207 44.6295 13.8944 44.6264 13.8683C44.6271 13.8413 44.6207 13.8145 44.6079 13.7902C44.595 13.7697 44.5766 13.7526 44.5545 13.7406C44.5286 13.7272 44.5004 13.7183 44.4711 13.7142C44.4356 13.7114 44.3999 13.711 44.3643 13.7128V13.7108Z" fill="#33C2FF"/>
<path d="M46.0929 13.4935C46.2395 13.485 46.3856 13.5165 46.5131 13.5842C46.5611 13.6155 46.5994 13.6579 46.6244 13.7072C46.6494 13.7565 46.6601 13.811 46.6556 13.8653C46.6591 13.934 46.6386 14.002 46.5972 14.0591C46.5531 14.1114 46.4945 14.1517 46.4277 14.1755C46.4519 14.2042 46.4775 14.2366 46.5046 14.2728C46.5316 14.3091 46.558 14.3468 46.5843 14.3865C46.6107 14.4262 46.6363 14.4679 46.6613 14.5109C46.6862 14.5539 46.7083 14.5955 46.7325 14.6372H46.4262C46.4034 14.6002 46.3814 14.5625 46.355 14.5248C46.3287 14.4871 46.3087 14.4494 46.2838 14.4136C46.2589 14.3779 46.2361 14.3435 46.2126 14.3118C46.1907 14.2814 46.1669 14.2523 46.1413 14.2245H46.011V14.6372H45.7375V13.5246C45.7987 13.5139 45.8605 13.5063 45.9227 13.5021C45.9854 13.4975 46.0423 13.4935 46.0929 13.4935ZM46.1086 13.7105H46.011V14.0168H46.0886C46.1643 14.0216 46.24 14.0093 46.3094 13.981C46.3316 13.9683 46.3495 13.9501 46.3613 13.9286C46.3731 13.907 46.3783 13.8828 46.3764 13.8587C46.3781 13.8347 46.3723 13.8107 46.3597 13.7897C46.347 13.7686 46.3281 13.7515 46.3052 13.7403C46.243 13.7165 46.1755 13.707 46.1086 13.7125V13.7105Z" fill="#33C2FF"/>
<path d="M47.5316 14.6397V13.5093H48.3536V13.7229H47.8059V13.9445H48.2902V14.1555H47.8059V14.4281H48.3942V14.6417L47.5316 14.6397Z" fill="#33C2FF"/>
<path d="M49.5516 14.445C49.5837 14.4458 49.6157 14.4429 49.647 14.4364C49.6687 14.4319 49.6892 14.4236 49.7076 14.412C49.722 14.4028 49.7331 14.3899 49.7396 14.3749C49.7453 14.3598 49.7482 14.344 49.7482 14.328C49.7481 14.3093 49.743 14.291 49.7331 14.2748C49.7232 14.2586 49.7091 14.245 49.6919 14.2354C49.6322 14.2013 49.568 14.1744 49.501 14.1553C49.4611 14.1421 49.4212 14.1275 49.3814 14.1103C49.3422 14.0936 49.3062 14.0713 49.2745 14.0442C49.2423 14.0181 49.2159 13.9865 49.1969 13.9509C49.1756 13.9097 49.1654 13.8643 49.167 13.8186C49.1662 13.77 49.1771 13.7219 49.199 13.6778C49.2197 13.6363 49.2501 13.5997 49.2881 13.5706C49.3307 13.5405 49.379 13.5181 49.4305 13.5045C49.4909 13.488 49.5535 13.48 49.6164 13.4806C49.7418 13.478 49.8658 13.5051 49.9768 13.5594L49.8978 13.7578C49.8614 13.7405 49.8235 13.7261 49.7845 13.7148C49.7358 13.7012 49.6851 13.6947 49.6342 13.6956C49.5851 13.6921 49.5359 13.7011 49.4918 13.7214C49.4778 13.7295 49.4664 13.741 49.4589 13.7546C49.4513 13.7682 49.4479 13.7835 49.449 13.7988C49.4484 13.8173 49.4538 13.8355 49.4647 13.8511C49.477 13.8663 49.4922 13.8793 49.5096 13.8894C49.5308 13.9015 49.5532 13.9117 49.5765 13.9198C49.6014 13.9291 49.6292 13.939 49.6599 13.949C49.7162 13.9683 49.7713 13.9904 49.8251 14.0151C49.8677 14.0344 49.9071 14.0593 49.9419 14.0892C49.9733 14.1172 49.9976 14.1513 50.0131 14.1891C50.0296 14.2335 50.0373 14.2803 50.0359 14.3273C50.0387 14.3741 50.0293 14.4209 50.0084 14.4636C49.9876 14.5063 49.956 14.5437 49.9163 14.5727C49.8112 14.6376 49.686 14.6683 49.5601 14.66C49.5125 14.6603 49.4649 14.6574 49.4177 14.6514C49.3791 14.6461 49.3408 14.6388 49.303 14.6296C49.2738 14.6217 49.2453 14.6124 49.2168 14.6018C49.1883 14.5912 49.1727 14.5826 49.1563 14.574L49.2332 14.3716C49.276 14.3927 49.3211 14.4093 49.3678 14.4212C49.4277 14.4366 49.4895 14.4446 49.5516 14.445Z" fill="#33C2FF"/>
<path d="M50.8657 14.6397V13.5093H51.6876V13.7229H51.1392V13.9445H51.6256V14.1555H51.1392V14.4281H51.7275V14.6417L50.8657 14.6397Z" fill="#33C2FF"/>
<path d="M53.3699 14.6397C53.2916 14.5101 53.2068 14.3822 53.1157 14.2561C53.0252 14.1323 52.9278 14.013 52.8236 13.8989V14.6397H52.553V13.5093H52.7773C52.8158 13.545 52.8585 13.5893 52.9055 13.6416C52.9525 13.6938 52.9996 13.7494 53.048 13.8083C53.0964 13.8671 53.1449 13.9293 53.1904 13.9928C53.236 14.0563 53.2837 14.1178 53.3258 14.176V13.5093H53.5978V14.6397H53.3699Z" fill="#33C2FF"/>
<path d="M55.0601 14.6619C54.9773 14.6671 54.8942 14.6562 54.8162 14.6299C54.7382 14.6035 54.6669 14.5624 54.607 14.5091C54.4966 14.3878 54.4409 14.2316 54.4518 14.0731C54.4501 13.9877 54.4663 13.9028 54.4995 13.8231C54.5285 13.7533 54.5726 13.6898 54.6291 13.6366C54.6851 13.5858 54.7521 13.5468 54.8257 13.5221C54.9051 13.4951 54.9891 13.4816 55.0736 13.4825C55.1213 13.4823 55.169 13.4859 55.216 13.493C55.2533 13.4992 55.2902 13.5074 55.3264 13.5175C55.3535 13.5256 55.3799 13.5353 55.4055 13.5466C55.4262 13.5559 55.4418 13.5638 55.4511 13.5691L55.372 13.7748C55.3302 13.755 55.2863 13.739 55.241 13.7272C55.1856 13.7139 55.1286 13.7075 55.0715 13.708C55.0293 13.7081 54.9874 13.7146 54.9475 13.7272C54.9073 13.7404 54.8708 13.7619 54.8407 13.79C54.8072 13.8218 54.7817 13.8599 54.7659 13.9018C54.746 13.9554 54.7366 14.0119 54.7381 14.0685C54.7375 14.1176 54.7437 14.1665 54.7566 14.214C54.7673 14.2565 54.7875 14.2964 54.8157 14.3311C54.8445 14.3647 54.8817 14.3912 54.924 14.4085C54.975 14.4288 55.0302 14.4385 55.0857 14.437C55.1214 14.4374 55.1572 14.4352 55.1925 14.4303C55.2211 14.4269 55.2494 14.4218 55.2773 14.4151C55.2994 14.4096 55.321 14.4027 55.3421 14.3946L55.3927 14.3735L55.4689 14.5772C55.4174 14.6037 55.3623 14.6235 55.3051 14.6361C55.225 14.6545 55.1426 14.6632 55.0601 14.6619Z" fill="#33C2FF"/>
<path d="M56.2673 13.5093H56.5408V14.6397H56.2673V13.5093Z" fill="#33C2FF"/>
<path d="M58.2616 14.6397C58.2481 14.6 58.2338 14.5603 58.2182 14.5187L58.1711 14.395H57.6961C57.6804 14.436 57.6655 14.4777 57.6498 14.5187C57.6341 14.5597 57.6199 14.6007 57.6063 14.6397H57.3214C57.3689 14.518 57.4124 14.4053 57.4518 14.3017C57.491 14.1979 57.5316 14.1033 57.5722 14.01C57.6128 13.9167 57.6505 13.8321 57.6882 13.7501C57.726 13.668 57.7666 13.5873 57.8072 13.5093H58.0672C58.107 13.5873 58.1469 13.668 58.1854 13.7501C58.2239 13.8321 58.2637 13.9187 58.3029 14.01C58.3421 14.1013 58.3827 14.1985 58.424 14.3017C58.4653 14.4049 58.5087 14.518 58.5543 14.6397H58.2616ZM57.9325 13.7653C57.9261 13.7818 57.9176 13.8043 57.9055 13.8314L57.8656 13.9293C57.8506 13.9663 57.8335 14.0074 57.815 14.0517C57.7965 14.096 57.7773 14.143 57.758 14.1919H58.1063C58.0878 14.143 58.07 14.096 58.0522 14.0517C58.0344 14.0074 58.018 13.9657 58.0023 13.9286L57.961 13.8307C57.9489 13.8036 57.9397 13.7811 57.9325 13.7653Z" fill="#33C2FF"/>
<path d="M60.1483 14.4201V14.6391H59.335V13.5093H59.6092V14.4201H60.1483Z" fill="#33C2FF"/>
<path d="M61.9924 14.6397V13.5093H62.8143V13.7229H62.2666V13.9445H62.753V14.1555H62.2666V14.4281H62.8549V14.6417L61.9924 14.6397Z" fill="#33C2FF"/>
<path d="M65.5422 14.6397C65.5286 14.6 65.5137 14.5603 65.4987 14.5187L65.4517 14.395H64.9767C64.961 14.436 64.9453 14.4777 64.9304 14.5187C64.9154 14.5597 64.9005 14.6007 64.8869 14.6397H64.602C64.6495 14.518 64.6929 14.4053 64.7324 14.3017C64.773 14.1985 64.8136 14.1033 64.8527 14.01C64.8919 13.9167 64.9311 13.8321 64.9695 13.7501C65.008 13.668 65.0472 13.5873 65.0885 13.5093H65.3477C65.3876 13.5873 65.4275 13.668 65.466 13.7501C65.5044 13.8321 65.5443 13.9187 65.5835 14.01C65.6227 14.1013 65.6633 14.1985 65.7046 14.3017C65.7459 14.4049 65.7893 14.518 65.8349 14.6397H65.5422ZM65.2131 13.7653C65.2067 13.7818 65.1982 13.8043 65.1861 13.8314C65.1739 13.8585 65.1611 13.8923 65.1455 13.9293C65.1298 13.9663 65.1141 14.0074 65.0956 14.0517C65.0771 14.096 65.0579 14.143 65.0386 14.1919H65.3841C65.3655 14.143 65.347 14.096 65.3299 14.0517C65.3128 14.0074 65.2957 13.9657 65.2801 13.9286L65.2388 13.8307C65.2295 13.8036 65.2202 13.7811 65.2131 13.7653Z" fill="#33C2FF"/>
<path d="M68.7266 14.0731C68.7286 14.1606 68.7119 14.2476 68.6775 14.3291C68.6463 14.3992 68.5975 14.4614 68.535 14.5103C68.4703 14.5601 68.3951 14.5969 68.3142 14.6181C68.2195 14.6432 68.1214 14.6552 68.0229 14.6539C67.9654 14.6546 67.9079 14.6526 67.8506 14.6479C67.7857 14.6445 67.7212 14.6368 67.6575 14.6248V13.5234C67.7231 13.5129 67.7892 13.5056 67.8555 13.5016C67.9268 13.4976 67.9823 13.4956 68.0315 13.4956C68.1275 13.4948 68.2233 13.5057 68.3164 13.5281C68.3962 13.5478 68.4707 13.583 68.535 13.6312C68.5978 13.6791 68.6467 13.7407 68.6775 13.8105C68.7122 13.8942 68.7289 13.9834 68.7266 14.0731ZM67.9346 14.4323H68.04C68.0952 14.4365 68.1508 14.4302 68.2033 14.4135C68.2557 14.3969 68.3039 14.3704 68.3449 14.3357C68.4139 14.263 68.4495 14.168 68.4439 14.0711C68.4515 14.0215 68.4464 13.971 68.4291 13.9236C68.4118 13.8762 68.3828 13.8332 68.3443 13.7981C68.3058 13.763 68.259 13.7368 68.2077 13.7216C68.1563 13.7064 68.1018 13.7027 68.0486 13.7106H67.9909C67.972 13.7112 67.9532 13.7127 67.9346 13.7153V14.4323Z" fill="#33C2FF"/>
<path d="M69.5785 13.5093H69.8527V14.6397H69.5785V13.5093Z" fill="#33C2FF"/>
<path d="M71.0892 14.4452C71.1212 14.446 71.1533 14.4431 71.1846 14.4366C71.2063 14.4321 71.2268 14.4238 71.2452 14.4121C71.2595 14.403 71.2707 14.3901 71.2772 14.3751C71.2829 14.36 71.2858 14.3441 71.2858 14.3281C71.2857 14.3095 71.2805 14.2912 71.2707 14.275C71.2608 14.2588 71.2466 14.2452 71.2295 14.2355C71.169 14.2018 71.1041 14.1754 71.0365 14.1568C70.9966 14.1436 70.9567 14.129 70.9168 14.1118C70.8776 14.0953 70.8415 14.0729 70.81 14.0457C70.7778 14.0196 70.7514 13.988 70.7324 13.9524C70.7111 13.9112 70.7008 13.8658 70.7024 13.8201C70.7016 13.7715 70.7126 13.7234 70.7345 13.6792C70.7552 13.6378 70.7856 13.6012 70.8235 13.5721C70.8662 13.542 70.9145 13.5196 70.966 13.5059C71.0263 13.4895 71.089 13.4814 71.1519 13.4821C71.2775 13.4793 71.4018 13.5064 71.513 13.5608L71.4339 13.7593C71.3975 13.742 71.3597 13.7276 71.3207 13.7163C71.2719 13.7027 71.2212 13.6962 71.1704 13.6971C71.1213 13.6936 71.072 13.7025 71.0279 13.7229C71.0139 13.731 71.0026 13.7425 70.995 13.7561C70.9875 13.7697 70.9841 13.785 70.9852 13.8003C70.9845 13.8188 70.99 13.837 71.0009 13.8526C71.0131 13.8678 71.0283 13.8808 71.0457 13.8909C71.0669 13.903 71.0894 13.9132 71.1127 13.9213C71.1376 13.9306 71.1654 13.9405 71.196 13.9504C71.2523 13.9699 71.3074 13.992 71.3612 14.0166C71.4039 14.0359 71.4432 14.0608 71.4781 14.0907C71.5094 14.1187 71.5337 14.1528 71.5493 14.1906C71.5657 14.235 71.5735 14.2818 71.5721 14.3288C71.5748 14.3756 71.5654 14.4224 71.5446 14.4651C71.5237 14.5078 71.4921 14.5452 71.4524 14.5742C71.3474 14.6391 71.2221 14.6698 71.0963 14.6615C71.0475 14.662 70.9987 14.6591 70.9503 14.6529C70.9117 14.6476 70.8734 14.6403 70.8356 14.6311C70.8064 14.6232 70.7779 14.6139 70.7494 14.6033C70.721 14.5927 70.7053 14.5841 70.6889 14.5755L70.7658 14.3731C70.8086 14.3942 70.8538 14.4108 70.9004 14.4227C70.962 14.4381 71.0255 14.4457 71.0892 14.4452Z" fill="#33C2FF"/>
<path d="M73.2707 13.5093V13.7282H72.9032V14.6417H72.6297V13.7282H72.2622V13.5113L73.2707 13.5093Z" fill="#33C2FF"/>
<path d="M74.7422 14.6393C74.7287 14.5996 74.7145 14.5599 74.6988 14.5182L74.6518 14.3945H74.1767C74.1618 14.4355 74.1461 14.4772 74.1304 14.5182C74.1148 14.5592 74.1005 14.6002 74.0877 14.6393H73.8028C73.8503 14.5176 73.8937 14.4049 73.9331 14.3013C73.9745 14.1981 74.0143 14.1028 74.0542 14.0096C74.0941 13.9163 74.1319 13.8316 74.1703 13.7496C74.2088 13.6676 74.2479 13.5869 74.2893 13.5088H74.5492C74.5891 13.5869 74.6283 13.6676 74.6675 13.7496C74.7066 13.8316 74.7451 13.9183 74.7843 14.0096C74.8234 14.1008 74.864 14.1981 74.9053 14.3013C74.9467 14.4045 74.9901 14.5176 75.0357 14.6393H74.7422ZM74.6931 13.3163L74.5962 13.4242L74.4203 13.2985L74.2444 13.4242L74.144 13.3163L74.4203 13.0928L74.6931 13.3163ZM74.4132 13.7648C74.4068 13.7814 74.3982 13.8038 74.3861 13.831L74.3462 13.9289C74.3313 13.9659 74.3142 14.0069 74.2957 14.0512C74.2771 14.0956 74.2579 14.1425 74.2394 14.1915H74.587C74.5685 14.1425 74.5506 14.0956 74.5328 14.0512L74.4837 13.9282C74.4687 13.8912 74.4538 13.8621 74.4417 13.8303C74.4296 13.7986 74.4203 13.7807 74.4132 13.7648Z" fill="#33C2FF"/>
<path d="M76.6325 14.6397C76.5542 14.5101 76.4692 14.3822 76.3775 14.2561C76.2878 14.132 76.1905 14.0127 76.0862 13.8989V14.6397H75.8156V13.5093H76.0385C76.0777 13.545 76.1204 13.5893 76.1674 13.6416C76.2144 13.6938 76.2615 13.7494 76.3099 13.8083C76.3583 13.8671 76.4075 13.9293 76.4523 13.9928C76.4972 14.0563 76.5456 14.1178 76.5877 14.176V13.5093H76.8597V14.6397H76.6325Z" fill="#33C2FF"/>
<path d="M78.3227 14.6619C78.2399 14.6671 78.1568 14.6562 78.0788 14.6299C78.0008 14.6035 77.9296 14.5624 77.8697 14.5091C77.7593 14.3878 77.7036 14.2316 77.7144 14.0731C77.7128 13.9877 77.729 13.9028 77.7622 13.8231C77.7911 13.7533 77.8353 13.6898 77.8918 13.6366C77.9477 13.5858 78.0148 13.5468 78.0884 13.5221C78.1677 13.4951 78.2517 13.4816 78.3362 13.4825C78.3839 13.4823 78.4316 13.4859 78.4787 13.493C78.516 13.4992 78.5528 13.5074 78.5891 13.5175C78.6161 13.5256 78.6425 13.5353 78.6681 13.5466C78.6888 13.5559 78.7045 13.5638 78.7137 13.5691L78.6347 13.7748C78.5928 13.755 78.5489 13.739 78.5036 13.7272C78.4483 13.7139 78.3913 13.7075 78.3341 13.708C78.2919 13.7081 78.2501 13.7146 78.2102 13.7272C78.1699 13.7404 78.1334 13.7619 78.1033 13.79C78.0713 13.8222 78.0471 13.8603 78.0321 13.9018C78.0122 13.9554 78.0028 14.0119 78.0043 14.0685C78.0037 14.1176 78.0099 14.1665 78.0228 14.214C78.0335 14.2565 78.0537 14.2964 78.082 14.3311C78.1112 14.3642 78.1483 14.3907 78.1902 14.4085C78.2413 14.4288 78.2964 14.4385 78.3519 14.437C78.3876 14.4374 78.4234 14.4352 78.4587 14.4303C78.4873 14.4269 78.5156 14.4218 78.5435 14.4151C78.5656 14.4096 78.5872 14.4027 78.6083 14.3946L78.6589 14.3735L78.7351 14.5772C78.6836 14.6037 78.6285 14.6235 78.5713 14.6361C78.49 14.6546 78.4064 14.6632 78.3227 14.6619Z" fill="#33C2FF"/>
<path d="M79.5292 13.5093H79.8027V14.6397H79.5292V13.5093Z" fill="#33C2FF"/>
<path d="M81.5242 14.6397C81.5107 14.6 81.4957 14.5603 81.4808 14.5187L81.4338 14.395H80.9587C80.943 14.436 80.9274 14.4777 80.9124 14.5187C80.8975 14.5597 80.8825 14.6007 80.869 14.6397H80.5841C80.6316 14.518 80.675 14.4053 80.7144 14.3017C80.755 14.1985 80.7956 14.1033 80.8348 14.01C80.874 13.9167 80.9131 13.8321 80.9516 13.7501C80.9901 13.668 81.0292 13.5873 81.0705 13.5093H81.3298C81.3697 13.5873 81.4096 13.668 81.448 13.7501C81.4865 13.8321 81.5264 13.9187 81.5655 14.01C81.6047 14.1013 81.6453 14.1985 81.6866 14.3017C81.7279 14.4049 81.7714 14.518 81.817 14.6397H81.5242ZM81.1959 13.7653C81.1895 13.7818 81.1809 13.8043 81.1688 13.8314C81.1567 13.8585 81.1439 13.8923 81.1282 13.9293C81.1126 13.9663 81.0969 14.0074 81.0784 14.0517C81.0599 14.096 81.0406 14.143 81.0214 14.1919H81.3697C81.3512 14.143 81.3326 14.096 81.3156 14.0517C81.2985 14.0074 81.2814 13.9657 81.2657 13.9286L81.2244 13.8307L81.1959 13.7653Z" fill="#33C2FF"/>
</g>
<defs>
<clipPath id="clip0">
<rect width="84.2308" height="15" fill="white"/>
</clipPath>
</defs>
</svg>
