<svg width="35" height="35" viewBox="0 0 35 35" fill="none" xmlns="http://www.w3.org/2000/svg">
<path d="M31.3086 9.91211H3.69141C1.99521 9.91211 0.615234 11.2921 0.615234 12.9883V25.293C0.615234 26.9892 1.99521 28.3691 3.69141 28.3691H31.3086C33.0048 28.3691 34.3848 26.9892 34.3848 25.293V12.9883C34.3848 11.2921 33.0048 9.91211 31.3086 9.91211ZM8.7323 20.736C8.47014 20.736 8.02225 20.7378 7.603 20.74V23.105C7.603 23.6713 7.1439 24.1304 6.57761 24.1304C6.01132 24.1304 5.55222 23.6713 5.55222 23.105L5.53711 15.3158C5.53622 15.0433 5.64389 14.7816 5.83625 14.5886C6.02861 14.3955 6.29002 14.2871 6.5625 14.2871H8.7323C10.534 14.2871 11.9998 15.7336 11.9998 17.5116C11.9998 19.2895 10.534 20.736 8.7323 20.736ZM17.5348 23.8831C16.9241 23.8938 15.3964 23.8996 15.3317 23.8999C15.3304 23.8999 15.3291 23.8999 15.3278 23.8999C15.0572 23.8999 14.7975 23.793 14.6055 23.6022C14.4124 23.4106 14.3034 23.1502 14.3024 22.8782C14.3024 22.8508 14.2871 15.3145 14.2871 15.3145C14.2866 15.0422 14.3944 14.7809 14.5867 14.5882C14.7791 14.3955 15.0402 14.2871 15.3125 14.2871H17.4542C19.8941 14.2871 21.5333 16.2187 21.5333 19.0935C21.5333 21.8283 19.8517 23.8427 17.5348 23.8831ZM28.0424 18.0024C28.6087 18.0024 29.0678 18.4615 29.0678 19.0278C29.0678 19.5941 28.6087 20.0532 28.0424 20.0532H26.1816V22.9688C26.1816 23.535 25.7225 23.9941 25.1562 23.9941C24.59 23.9941 24.1309 23.535 24.1309 22.9688V15.2333C24.1309 14.6671 24.59 14.2079 25.1562 14.2079H28.2914C28.8577 14.2079 29.3168 14.6671 29.3168 15.2333C29.3168 15.7996 28.8577 16.2587 28.2914 16.2587H26.1816V18.0024H28.0424Z" fill="#33C2FF"/>
<path d="M17.4542 16.3379H16.3397C16.3413 17.2635 16.3469 20.9531 16.3498 21.8438C16.7765 21.841 17.2334 21.8373 17.499 21.8326C18.8692 21.8087 19.4826 20.4397 19.4826 19.0935C19.4825 18.4471 19.3363 16.3379 17.4542 16.3379Z" fill="#33C2FF"/>
<path d="M8.73233 16.3379H7.591C7.59223 16.7942 7.5934 17.2796 7.5934 17.5116C7.5934 17.7826 7.59531 18.2527 7.5975 18.6892C8.01832 18.6871 8.46785 18.6852 8.7324 18.6852C9.39193 18.6852 9.94913 18.1478 9.94913 17.5116C9.94913 16.8753 9.39186 16.3379 8.73233 16.3379Z" fill="#33C2FF"/>
<path d="M30.2459 7.86133C30.0083 7.20986 29.6391 6.60775 29.1504 6.09219L24.8912 1.59954C23.9275 0.583037 22.5714 0 21.1706 0H7.51953C5.82333 0 4.44336 1.37997 4.44336 3.07617V7.86133H30.2459Z" fill="#33C2FF"/>
<path d="M4.44336 30.4199V31.9238C4.44336 33.62 5.82333 35 7.51953 35H27.4805C29.1767 35 30.5566 33.62 30.5566 31.9238V30.4199H4.44336Z" fill="#33C2FF"/>
</svg>
