<svg width="35" height="35" viewBox="0 0 35 35" fill="none" xmlns="http://www.w3.org/2000/svg">
<g clip-path="url(#clip0)">
<path d="M23.0766 23.8848C22.4681 23.2765 21.6593 22.9411 20.7986 22.9411C19.9383 22.9411 19.1292 23.2763 18.5206 23.8848L17.6885 24.7169C16.3734 26.032 14.2431 26.0341 12.9255 24.7169L10.3522 22.1435C9.03733 20.8287 9.03466 18.6978 10.3522 17.3805L11.1842 16.5485C11.7928 15.9399 12.1279 15.1311 12.1279 14.2704C12.1279 13.4101 11.7928 12.601 11.1842 11.9924L7.70031 8.50848C6.44421 7.25238 4.40037 7.25238 3.14426 8.50848L1.59069 10.0621C0.567168 11.0856 0.00373653 12.4464 0.00373653 13.8937C0.00373653 15.3786 -0.354083 22.8482 5.93338 29.1357C12.1621 35.3644 19.5244 35.0653 21.1754 35.0653C22.6227 35.0653 23.9835 34.5019 25.007 33.4784L26.5606 31.9248C27.8167 30.6687 27.8167 28.6248 26.5606 27.3687L23.0766 23.8848Z" fill="#33C2FF"/>
<path d="M29.5815 0.0683594H19.6966C16.7038 0.0683594 14.2781 2.48924 14.2781 5.48691V20.8632C14.2781 21.702 15.2399 22.1925 15.9187 21.6836L20.0384 18.5938H29.5815C32.5741 18.5938 35.0001 16.1729 35.0001 13.1752V5.48691C35.0001 2.49432 32.5792 0.0683594 29.5815 0.0683594ZM24.6391 14.2006C24.073 14.2006 23.6137 13.741 23.6137 13.1752C23.6137 12.6091 24.073 12.1498 24.6391 12.1498C25.2049 12.1498 25.6645 12.6091 25.6645 13.1752C25.6645 13.741 25.2049 14.2006 24.6391 14.2006ZM24.6391 10.9055C24.0727 10.9055 23.6137 10.4464 23.6137 9.88007C23.6137 9.31397 24.0727 8.85468 24.6391 8.85468C25.2847 8.85468 25.8103 8.32944 25.8103 7.68349C25.8103 7.03782 25.2847 6.5123 24.6391 6.5123C23.9931 6.5123 23.4679 7.03782 23.4679 7.68349C23.4679 8.24986 23.0086 8.70888 22.4425 8.70888C21.8761 8.70888 21.4171 8.24986 21.4171 7.68349C21.4171 5.90695 22.8625 4.46152 24.6391 4.46152C26.4156 4.46152 27.861 5.90695 27.861 7.68349C27.861 9.4603 26.4156 10.9055 24.6391 10.9055Z" fill="#33C2FF"/>
</g>
<defs>
<clipPath id="clip0">
<rect width="35" height="35" fill="white"/>
</clipPath>
</defs>
</svg>
